<?xml version="1.0" encoding="utf-8"?>
<!-- Generator: Adobe Illustrator 27.0.0, SVG Export Plug-In . SVG Version: 6.00 Build 0)  -->
<svg version="1.1" id="Camada_1" xmlns="http://www.w3.org/2000/svg" xmlns:xlink="http://www.w3.org/1999/xlink" x="0px" y="0px"
	 viewBox="0 0 1000 1000" style="enable-background:new 0 0 1000 1000;" xml:space="preserve">
<style type="text/css">
	.st0{fill:#FFFFFF;}
	.st1{fill:#17233D;}
	.st2{fill:#E52635;}
</style>
<g>
	<path class="st0" d="M500,994.5c-66.8,0-131.5-13.1-192.5-38.9c-58.9-24.9-111.8-60.6-157.2-106c-45.4-45.4-81.1-98.3-106-157.2
		C18.6,631.5,5.5,566.8,5.5,500s13.1-131.5,38.9-192.5c24.9-58.9,60.6-111.8,106-157.2c45.4-45.4,98.3-81.1,157.2-106
		C368.5,18.6,433.2,5.5,500,5.5s131.5,13.1,192.5,38.9c58.9,24.9,111.8,60.6,157.2,106c45.4,45.4,81.1,98.3,106,157.2
		c25.8,61,38.9,125.7,38.9,192.5s-13.1,131.5-38.9,192.5c-24.9,58.9-60.6,111.8-106,157.2c-45.4,45.4-98.3,81.1-157.2,106
		C631.5,981.4,566.8,994.5,500,994.5z"/>
	<path class="st1" d="M500,11c66,0,130.1,12.9,190.3,38.4c58.2,24.6,110.5,59.9,155.4,104.8c44.9,44.9,80.2,97.2,104.8,155.4
		C976.1,369.9,989,434,989,500s-12.9,130.1-38.4,190.3c-24.6,58.2-59.9,110.5-104.8,155.4c-44.9,44.9-97.2,80.2-155.4,104.8
		C630.1,976.1,566,989,500,989s-130.1-12.9-190.3-38.4c-58.2-24.6-110.5-59.9-155.4-104.8c-44.9-44.9-80.2-97.2-104.8-155.4
		C23.9,630.1,11,566,11,500s12.9-130.1,38.4-190.3c24.6-58.2,59.9-110.5,104.8-155.4s97.2-80.2,155.4-104.8
		C369.9,23.9,434,11,500,11 M500,0C223.9,0,0,223.9,0,500s223.9,500,500,500s500-223.9,500-500S776.1,0,500,0L500,0z"/>
</g>
<path class="st2" d="M472.6,750.6c0,40.9,0.2,98.3,0.2,125.2c0,2.8,0.2,5.4,0.7,8c1.9,8.7,1.4,15.2,20.3,15.2
	c18.4,0,20.3-4,22.2-13.2c0.9-5.7,1-8.5,1-13.5c0.5-32.2,0.2-55.4,0.3-87.8c0.2-5.2,8.1-6.4,11.8-6.2c24.1,1.7,111.7,8.5,155.8,23.4
	c44,12.6,45.7,12.6,45.7,12.6s15.1,3.1,19.9-10.2c2.9-10.9,1.2-15.1-5-20.8c-7.4-5.7-36-24.4-45.2-53.8c-0.5-1.6,0.2-3.1,1.6-3.8
	c13.5-7.3,82.4-45.4,133.7-94.4c31.5-32.9,48.5-52.6,58.3-86.2c1.9-6.6,2.6-13.5,1.9-20.4c-0.9-8-4-17.3-12.8-20.9
	c-4-1.6-8.7-1.4-12.5,0.5c-2.3,1-4.8,2.8-7.8,5.4c-8,7.3-15.4,12.8-15.4,12.8s-2.9,2.4-1.6-2.8c2.1-5.5,28.6-59.7,32.4-108.9
	c0,0,5.4-30.1-11.8-29.8c-14.4,1.7-29.1,8.8-46.9,14.4c-17.8,5.7-35.8,9-49.7,0.2c-13.9-8.8-20.9-28.7-22.7-46.4
	c-1.7-14.7-9.5-18.5-18.7-18.9c-9.2,0-16.6,7.4-20.4,19.9c-5.9,12.1-14.9,39.1-66.8,70.6c-1.2,0.7-2.6-0.5-2.1-1.7
	c5-13.5,20.9-60.6,21.1-105.4c-0.7-48.3-4-62.7-13.5-82.2c-7.8-11.9-15.2-17.8-29.4-2.8c-14.2,15.1-25.6,23.2-45.2,3.6
	c-14.9-20.6-26.1-45-32.5-61.8c-6.4-16.8-20.8-50.2-26.8-58.7c-6.4-10.4-13.9-17.5-25.3,0c-10.6,17.8-17.3,36-23,49
	c-5.7,13.2-15.9,42.6-31.3,64.6c-14.2,16.8-23.9,24.6-41.2,12.3c-11.3-10.2-14.4-17.3-23.4-17.5c-8.8-0.2-15.9,7.6-21.3,26.1
	c-5.4,18.5-11.3,53.7-5.7,93.5c4.8,34.6,13.2,63.9,18.4,77.6c0.7,1.9-1.2,3.6-2.9,2.8c-11.6-5.9-40.2-24.4-64.9-69.6
	c0,0-7.3-19.9-20.9-19.7c-13.7,0.2-18.4,10.2-18.9,20.9c-1.4,11.4-6.9,47.4-39.6,49c-31-0.3-43.8-11.1-69.4-18.2
	c-23.9-6.8-22.3,13.7-22.3,13.7s0,50.6,26.5,107.2l6.1,13.9c0,0,3.5,10-4.8,2.4c-8.3-7.4-16.6-14.2-16.6-14.2s-15.4-9.7-25.1,8.8
	c-7.4,18.9,3.5,44.7,3.5,44.7s18.2,39.5,55.1,73.9c38.6,33.4,55.7,45.7,71,55.7c15.2,10,59.6,36,59.6,36s4.7,2.4,2.1,8
	c-2.9,6.2-8.8,23-38.3,46.4c-15.2,14.9-13.9,16.8-9,28.2c4.8,11.4,18.5,8.1,26,5.9c6.9-2.1,75.7-25.1,140.2-31.2
	c7.1-0.7,12.6-6.6,12.6-13.9v-5.4c0-10-8.8-17.8-18.7-16.8c-23.5,2.8-62.2,7.8-73.9,13c-7.3,2.4-14.5,5.7-8.8-4.8
	c7.4-11.9,9.5-23.9,10.6-28.6c1-4.7,1.7-13.2-7.6-19.9c-9.3-6.8-71-44.5-94.9-60.4c-23.9-15.9-76-61.1-82.8-80c0,0-7.4-11.3,3.8-5.9
	s33.1,4.2,40.7,4c8-1,15.6-5,16.8-14.4c1.2-9.3-2.6-14-5.5-17.1c-7.3-8.7-27.7-35.7-35.5-59.7c-7.8-23.9-9.2-28.6-11.6-38.6
	c-1.4-4.5-0.9-6.9,4.7-4.5c5.5,2.8,31.5,8,44.1,8c12.6,0,43.8-2.9,62-33.8c0,0,5.4-10,10.2-0.3c7.4,10.6,18.5,21.1,25.3,26.7
	c6.8,5.5,50.9,42.8,91.1,42.9c14.2,0.3,19.4-5.5,19.4-11.6s-6.1-17.7-14.7-33.9c-8.8-16.3-23.5-63.7-25.1-76.9
	c-1.6-8.5-4.3-52.5-0.5-70.8c0.9-3.1,2.3-4.5,5-3.1c2.9,1.4,12.5,5.2,21.6,5.7c9.2,0.3,30.5-3.6,44.1-20.1
	c14.4-18.4,29.1-38.6,44-70.1c0.7-1.4,1.4-2.9,1.9-4.5l2.4-6.1c0,0,2.6-6.9,5.5,0.3c3.1,8.1,19,43.3,28.7,55.9
	c9.7,12.6,22.9,33.1,46.6,41.7c24.1,5.4,29.6,0.7,38.8-3.3c2.6-1.4,4.3-2.8,4.8,2.6c0.5,5.4,3.3,33.2,1.7,52.3
	c-1.4,19-5,41.9-19.2,77.4c-11.4,25.8-14,30.6-18.7,38.8c-5.2,9.9-9.2,26.8,14.4,25.8c23-1.4,54.2-10.6,90.9-42.2
	c23-20.8,25.6-26.5,28-29.6c1.7-2.4,4.3-5.7,6.8-0.7c2.4,5,20.4,37.4,64.6,37.1c24.8,0.7,44.3-8.1,44.3-8.1s4.7-2.3,3.5,3.8
	c-1.2,6.2-11.9,49.3-27.7,71.8c-13.5,20.1-13.2,18.9-20.3,28.2c-6.1,6.6-4.3,16.3-4.3,16.3s1.6,15.6,27.7,14.5c26.1-1,31-4.8,31-4.8
	s9.2-5.5,3.5,4s-19.4,28.4-36.2,43.3c-16.8,14.9-28.6,24.9-40.7,33.6c-12.1,8.8-56.1,37.7-71,45.7s-18,9.5-26,14
	c-8,4.5-15.2,8-12.6,26.7c2.6,18.7,10,28.7,11.4,30.1s4.7,6.2-2.8,4c-7.4-2.3-78.9-15.8-115.7-16.6c-33.6-0.9-40.9-1.7-72.7-2.1
	C476.8,741.5,472.6,745.5,472.6,750.6z"/>
</svg>
