<svg width="84" height="84" viewBox="0 0 84 84" fill="none" xmlns="http://www.w3.org/2000/svg">
<circle cx="42" cy="42" r="40.5" stroke="#17233D" stroke-width="3"/>
<g clip-path="url(#clip0_3_266)">
<path fill-rule="evenodd" clip-rule="evenodd" d="M32.1562 22.3125C32.1562 21.8774 32.3291 21.4601 32.6368 21.1524C32.9445 20.8447 33.3618 20.6719 33.7969 20.6719C36.6253 20.6719 38.9583 21.6136 40.5562 22.5291C41.1272 22.8539 41.6095 23.1788 42 23.4675C42.3905 23.1788 42.8728 22.8539 43.4437 22.5291C45.4971 21.3329 47.8269 20.6927 50.2031 20.6719C50.6382 20.6719 51.0555 20.8447 51.3632 21.1524C51.6709 21.4601 51.8438 21.8774 51.8438 22.3125C51.8438 22.7476 51.6709 23.1649 51.3632 23.4726C51.0555 23.7803 50.6382 23.9531 50.2031 23.9531C48.1097 23.9531 46.3411 24.652 45.0712 25.3772C44.5708 25.6623 44.0926 25.9848 43.6406 26.3419V40.3594H45.2812C45.7164 40.3594 46.1337 40.5322 46.4413 40.8399C46.749 41.1476 46.9219 41.5649 46.9219 42C46.9219 42.4351 46.749 42.8524 46.4413 43.1601C46.1337 43.4678 45.7164 43.6406 45.2812 43.6406H43.6406V57.6581C43.9688 57.9206 44.4544 58.2717 45.0712 58.6228C46.3411 59.348 48.1097 60.0469 50.2031 60.0469C50.6382 60.0469 51.0555 60.2197 51.3632 60.5274C51.6709 60.8351 51.8438 61.2524 51.8438 61.6875C51.8438 62.1226 51.6709 62.5399 51.3632 62.8476C51.0555 63.1553 50.6382 63.3281 50.2031 63.3281C47.8269 63.3073 45.4971 62.6671 43.4437 61.4709C42.945 61.1882 42.463 60.8771 42 60.5391C41.5371 60.8782 41.055 61.1904 40.5562 61.4742C38.5029 62.6704 36.1731 63.3106 33.7969 63.3314C33.3618 63.3314 32.9445 63.1586 32.6368 62.8509C32.3291 62.5432 32.1562 62.1259 32.1562 61.6908C32.1562 61.2557 32.3291 60.8384 32.6368 60.5307C32.9445 60.223 33.3618 60.0502 33.7969 60.0502C35.8903 60.0502 37.6589 59.3513 38.9288 58.6261C39.5456 58.275 40.028 57.9239 40.3594 57.6614V43.6406H38.7188C38.2836 43.6406 37.8663 43.4678 37.5587 43.1601C37.251 42.8524 37.0781 42.4351 37.0781 42C37.0781 41.5649 37.251 41.1476 37.5587 40.8399C37.8663 40.5322 38.2836 40.3594 38.7188 40.3594H40.3594V26.3419C39.9074 25.9848 39.4292 25.6623 38.9288 25.3772C37.3709 24.4646 35.6022 23.9738 33.7969 23.9531C33.3618 23.9531 32.9445 23.7803 32.6368 23.4726C32.3291 23.1649 32.1562 22.7476 32.1562 22.3125Z" fill="#17233D"/>
<path d="M48.5625 32.1562H61.6875C62.5577 32.1562 63.3923 32.502 64.0077 33.1173C64.623 33.7327 64.9688 34.5673 64.9688 35.4375V48.5625C64.9688 49.4327 64.623 50.2673 64.0077 50.8827C63.3923 51.498 62.5577 51.8438 61.6875 51.8438H48.5625V55.125H61.6875C63.428 55.125 65.0972 54.4336 66.3279 53.2029C67.5586 51.9722 68.25 50.303 68.25 48.5625V35.4375C68.25 33.697 67.5586 32.0278 66.3279 30.7971C65.0972 29.5664 63.428 28.875 61.6875 28.875H48.5625V32.1562ZM35.4375 32.1562V28.875H22.3125C20.572 28.875 18.9028 29.5664 17.6721 30.7971C16.4414 32.0278 15.75 33.697 15.75 35.4375L15.75 48.5625C15.75 50.303 16.4414 51.9722 17.6721 53.2029C18.9028 54.4336 20.572 55.125 22.3125 55.125H35.4375V51.8438H22.3125C21.4423 51.8438 20.6077 51.498 19.9923 50.8827C19.377 50.2673 19.0312 49.4327 19.0312 48.5625V35.4375C19.0312 34.5673 19.377 33.7327 19.9923 33.1173C20.6077 32.502 21.4423 32.1562 22.3125 32.1562H35.4375Z" fill="#17233D"/>
</g>
<defs>
<clipPath id="clip0_3_266">
<rect width="52.5" height="52.5" fill="white" transform="translate(15.75 15.75)"/>
</clipPath>
</defs>
</svg>
