<svg width="84" height="84" viewBox="0 0 84 84" fill="none" xmlns="http://www.w3.org/2000/svg">
<g clip-path="url(#clip0_3_276)">
<path d="M36.498 18.0285C37.478 16.0685 39.2455 14 42 14C44.7545 14 46.522 16.072 47.502 18.0285C48.5135 20.055 49 22.5085 49 24.5V37.4185L67.095 46.466C67.9678 46.9017 68.7019 47.572 69.215 48.4016C69.7281 49.2313 70 50.1875 70 51.163V56C69.9999 56.254 69.9445 56.505 69.8376 56.7354C69.7307 56.9659 69.575 57.1703 69.3811 57.3345C69.1873 57.4987 68.96 57.6187 68.7151 57.6862C68.4702 57.7538 68.2136 57.7672 67.963 57.7255L48.6885 54.5125L47.376 62.398L51.989 67.011C52.2344 67.2558 52.4016 67.5679 52.4693 67.9077C52.5371 68.2476 52.5025 68.6 52.3697 68.9201C52.237 69.2403 52.0122 69.5138 51.7239 69.7061C51.4355 69.8983 51.0966 70.0006 50.75 70H33.25C32.9034 70.0006 32.5645 69.8983 32.2761 69.7061C31.9878 69.5138 31.763 69.2403 31.6303 68.9201C31.4975 68.6 31.4629 68.2476 31.5307 67.9077C31.5984 67.5679 31.7656 67.2558 32.011 67.011L36.6275 62.398L35.3115 54.5125L16.037 57.7255C15.7864 57.7672 15.5298 57.7538 15.2849 57.6862C15.04 57.6187 14.8127 57.4987 14.6189 57.3345C14.425 57.1703 14.2693 56.9659 14.1624 56.7354C14.0555 56.505 14.0001 56.254 14 56V51.163C14 50.1875 14.2719 49.2313 14.785 48.4016C15.2981 47.572 16.0322 46.9017 16.905 46.466L35 37.4185V24.5C35 22.512 35.49 20.0515 36.498 18.0285ZM39.627 19.5965C38.8885 21.07 38.5 22.9915 38.5 24.5V38.5C38.5 38.8247 38.4096 39.143 38.239 39.4193C38.0684 39.6956 37.8243 39.919 37.534 40.0645L18.466 49.5985C18.1757 49.744 17.9316 49.9674 17.761 50.2437C17.5904 50.52 17.5 50.8383 17.5 51.163V53.935L36.463 50.7745C36.9201 50.6985 37.3886 50.8069 37.7659 51.076C38.1432 51.345 38.3984 51.7526 38.4755 52.2095L40.2255 62.7095C40.2719 62.985 40.2516 63.2677 40.1663 63.5338C40.0811 63.7999 39.9333 64.0417 39.7355 64.239L37.478 66.5H46.529L44.2645 64.239C44.0672 64.0421 43.9198 63.8008 43.8345 63.5354C43.7493 63.27 43.7287 62.988 43.7745 62.713L45.5245 52.213C45.5623 51.9861 45.6444 51.7689 45.7662 51.5737C45.888 51.3786 46.047 51.2094 46.2343 51.0758C46.4215 50.9422 46.6333 50.8468 46.8574 50.7951C47.0815 50.7434 47.3137 50.7364 47.5405 50.7745L66.5 53.935V51.163C66.5 50.8383 66.4096 50.52 66.239 50.2437C66.0684 49.9674 65.8243 49.744 65.534 49.5985L46.466 40.0645C46.1757 39.919 45.9316 39.6956 45.761 39.4193C45.5904 39.143 45.5 38.8247 45.5 38.5V24.5C45.5 22.988 45.115 21.0735 44.373 19.5965C43.603 18.0565 42.7455 17.5 42 17.5C41.2545 17.5 40.397 18.053 39.627 19.5965Z" fill="#17233D"/>
</g>
<circle cx="42" cy="42" r="40.5" stroke="#17233D" stroke-width="3"/>
<defs>
<clipPath id="clip0_3_276">
<rect width="56" height="56" fill="white" transform="translate(14 14)"/>
</clipPath>
</defs>
</svg>
