<svg width="84" height="84" viewBox="0 0 84 84" fill="none" xmlns="http://www.w3.org/2000/svg">
<g clip-path="url(#clip0_3_271)">
<path d="M56.476 15.1411C57.2497 14.9475 58.0573 14.9328 58.8376 15.098C59.6178 15.2632 60.3502 15.604 60.979 16.0946C61.6079 16.5851 62.1167 17.2125 62.4669 17.929C62.8171 18.6456 62.9994 19.4325 63 20.2301V24.5001H64.75C66.1424 24.5001 67.4777 25.0532 68.4623 26.0377C69.4469 27.0223 70 28.3577 70 29.7501V61.2501C70 62.6424 69.4469 63.9778 68.4623 64.9624C67.4777 65.9469 66.1424 66.5001 64.75 66.5001H19.25C17.8576 66.5001 16.5223 65.9469 15.5377 64.9624C14.5531 63.9778 14 62.6424 14 61.2501V29.7501C13.9995 28.3985 14.5202 27.0989 15.4538 26.1217C16.3874 25.1444 17.6619 24.5648 19.012 24.5036L56.476 15.1411ZM33.467 24.5001H59.5V20.2301C59.4994 19.9645 59.4384 19.7026 59.3216 19.4642C59.2048 19.2257 59.0352 19.017 58.8258 18.8537C58.6164 18.6905 58.3725 18.5771 58.1128 18.522C57.853 18.467 57.5841 18.4718 57.3265 18.5361L33.467 24.5001ZM19.25 28.0001C18.7859 28.0001 18.3408 28.1844 18.0126 28.5126C17.6844 28.8408 17.5 29.2859 17.5 29.7501V61.2501C17.5 61.7142 17.6844 62.1593 18.0126 62.4875C18.3408 62.8157 18.7859 63.0001 19.25 63.0001H64.75C65.2141 63.0001 65.6592 62.8157 65.9874 62.4875C66.3156 62.1593 66.5 61.7142 66.5 61.2501V29.7501C66.5 29.2859 66.3156 28.8408 65.9874 28.5126C65.6592 28.1844 65.2141 28.0001 64.75 28.0001H19.25Z" fill="#17233D"/>
</g>
<circle cx="42" cy="42" r="40.5" stroke="#17233D" stroke-width="3"/>
<defs>
<clipPath id="clip0_3_271">
<rect width="56" height="56" fill="white" transform="translate(14 14)"/>
</clipPath>
</defs>
</svg>
